<?xml version="1.0" standalone="no"?>
<!DOCTYPE svg PUBLIC "-//W3C//DTD SVG 20010904//EN"
 "http://www.w3.org/TR/2001/REC-SVG-20010904/DTD/svg10.dtd">
<svg version="1.0" xmlns="http://www.w3.org/2000/svg"
 width="700.000000pt" height="700.000000pt" viewBox="0 0 700.000000 700.000000"
 preserveAspectRatio="xMidYMid meet">
<metadata>
Created by potrace 1.11, written by Peter Selinger 2001-2013
</metadata>
<g transform="translate(0.000000,700.000000) scale(0.100000,-0.100000)"
fill="#000000" stroke="none">
<path d="M3305 6955 c-33 -17 -118 -58 -190 -92 -71 -34 -206 -99 -300 -144
-93 -44 -210 -100 -260 -124 -82 -39 -191 -91 -515 -247 -172 -83 -382 -184
-500 -240 -58 -28 -197 -95 -309 -149 -112 -55 -204 -99 -206 -99 -2 0 -96
-45 -210 -100 -114 -55 -226 -109 -248 -119 -23 -11 -134 -64 -247 -119 l-204
-99 -1 -1920 0 -1919 215 -99 c118 -54 253 -117 300 -139 47 -22 87 -40 90
-41 3 -1 50 -22 104 -48 54 -26 100 -47 102 -47 1 0 47 -21 101 -46 54 -26
125 -59 158 -74 120 -55 571 -263 630 -290 153 -71 344 -159 385 -178 25 -11
86 -39 135 -62 50 -23 110 -51 135 -62 25 -12 88 -41 140 -65 52 -25 133 -62
180 -83 47 -21 128 -58 180 -83 52 -24 118 -54 145 -67 28 -12 97 -45 154 -71
57 -27 105 -49 108 -49 2 0 30 -13 62 -29 l58 -28 194 88 c107 49 217 100 244
113 28 14 133 63 235 109 102 47 226 104 275 127 50 23 164 76 254 117 91 41
172 79 180 84 9 5 48 23 86 40 102 45 299 136 380 174 39 18 102 48 140 65 39
18 158 73 265 122 107 50 247 114 310 143 63 29 159 73 213 99 55 25 100 46
102 46 2 0 50 22 107 49 97 46 167 78 331 153 l67 31 -2 1921 -3 1920 -25 13
c-14 7 -149 67 -300 134 -151 67 -300 132 -330 146 -30 14 -68 31 -85 38 -16
7 -55 24 -85 38 -30 14 -93 42 -140 62 -47 21 -113 51 -147 66 -34 16 -64 29
-67 29 -3 0 -33 13 -68 29 -35 17 -227 103 -428 191 -201 89 -390 173 -420
187 -30 14 -68 31 -85 38 -16 7 -55 24 -85 38 -30 14 -134 60 -230 102 -96 43
-200 89 -230 102 -30 14 -73 33 -95 43 -22 9 -56 24 -75 33 -19 9 -55 24 -80
35 -25 11 -65 29 -90 40 -25 11 -135 60 -245 109 l-200 88 -60 -30z"/>
</g>
</svg>
