<?xml version="1.0" encoding="UTF-8" standalone="no"?>
<svg
   xmlns:dc="http://purl.org/dc/elements/1.1/"
   xmlns:cc="http://creativecommons.org/ns#"
   xmlns:rdf="http://www.w3.org/1999/02/22-rdf-syntax-ns#"
   xmlns:svg="http://www.w3.org/2000/svg"
   xmlns="http://www.w3.org/2000/svg"
   xmlns:sodipodi="http://sodipodi.sourceforge.net/DTD/sodipodi-0.dtd"
   xmlns:inkscape="http://www.inkscape.org/namespaces/inkscape"
   inkscape:version="1.0 (4035a4f, 2020-05-01)"
   inkscape:export-ydpi="96"
   inkscape:export-xdpi="96"
   inkscape:export-filename="/Users/jft/jft/projects/reconstrue/gits/cubee/public/reconstrue/cubee.png"
   sodipodi:docname="cubee.svg"
   xml:space="preserve"
   viewBox="0 0 511.99999 511.99999"
   y="0px"
   x="0px"
   id="Capa_1"
   version="1.1"
   width="512"
   height="512"><metadata
   id="metadata246"><rdf:RDF><cc:Work
       rdf:about=""><dc:format>image/svg+xml</dc:format><dc:type
         rdf:resource="http://purl.org/dc/dcmitype/StillImage" /><dc:title></dc:title></cc:Work></rdf:RDF></metadata><defs
   id="defs244" /><sodipodi:namedview
   inkscape:current-layer="g209"
   inkscape:window-maximized="0"
   inkscape:window-y="23"
   inkscape:window-x="0"
   inkscape:cy="255.88235"
   inkscape:cx="305.87132"
   inkscape:zoom="1.1724138"
   showgrid="false"
   id="namedview242"
   inkscape:window-height="869"
   inkscape:window-width="1457"
   inkscape:pageshadow="2"
   inkscape:pageopacity="0"
   guidetolerance="10"
   gridtolerance="10"
   objecttolerance="10"
   borderopacity="1"
   inkscape:document-rotation="0"
   bordercolor="#666666"
   pagecolor="#ffffff"
   fit-margin-top="0"
   fit-margin-left="0"
   fit-margin-right="0"
   fit-margin-bottom="0" />
<g
   id="g209"
   transform="translate(-2.9999998)">
	
	
	
<g
   inkscape:export-ydpi="96"
   inkscape:export-xdpi="96"
   transform="matrix(1.8832808,0,0,1.8832808,5.8795696,1.1470588)"
   id="g2006"><g
     id="g1163"
     transform="matrix(5.0514706,0,0,4.6617647,-12.154412,0)"><polygon
       inkscape:export-ydpi="96"
       inkscape:export-xdpi="96"
       id="polygon203"
       points="29,26 29,58 3,45 3,13 "
       style="fill:#ff6f00;fill-opacity:1" /><polygon
       id="polygon205"
       points="29,26 29,58 55,45 55,13 "
       style="fill:#ff9800;fill-opacity:1"
       inkscape:export-xdpi="96"
       inkscape:export-ydpi="96" /><polygon
       inkscape:export-ydpi="96"
       inkscape:export-xdpi="96"
       id="polygon207"
       points="29,26 3,13 28,0 55,13 "
       style="fill:#f4b400;fill-opacity:1" /></g><path
     sodipodi:nodetypes="csscsscccsccccscccsscccscccsscccccssscccccccsssscscccsssccscccscssssccssscsccccscc"
     inkscape:connector-curvature="0"
     id="path2999"
     d="m 139.59929,92.881484 c 1.87007,-0.64947 22.06156,-16.14288 20.95088,-17.253541 -2.16476,-2.164768 -14.25795,8.954265 -15.93868,10.114955 -2.72551,1.88219 -8.3184,4.065866 -9.1803,5.983296 -3.11037,-2.39756 -6.13831,-3.24312 -9.04589,0.24398 -1.68964,2.02642 -30.956035,-21.247302 -26.579861,-12.454564 0.564981,1.135175 22.265481,13.561974 22.947001,14.243494 -2.57959,0.1053 -3.78781,1.55094 -4.42755,3.47018 -4.62948,-1.124 -5.50285,6.886536 -2.13909,8.710106 1.14536,3.99698 1.54596,8.04916 0.81792,6.52759 -0.36741,-0.76786 -5.81034,-4.03939 -6.79508,-1.91317 -2.1055,-3.68402 -11.539773,-8.57706 -12.489585,-8.29178 -1.98353,-11.463636 -11.04516,-14.108326 -17.44833,-17.402802 0.58182,2.05073 -2.3731,1.9827 -1.8626,2.38819 3.14087,2.320416 8.65223,3.704636 11.37291,6.697256 1.98404,2.18237 6.10446,9.156566 5.38008,11.734756 3.493002,4.63266 8.963915,6.58065 13.757435,9.1494 0.39133,1.33413 0.0383,1.82747 5.3919,3.85409 -0.75265,1.50531 -14.402881,-1.56709 -15.568213,-1.95553 -8.421662,-2.80722 -55.648319,-16.18296 -63.487878,-6.07539 -7.976245,10.28381 15.866785,29.52506 27.187396,22.17519 -6.097359,8.03548 24.41365,17.77777 29.99726,13.66964 1.89784,-1.42337 23.639535,-12.83579 26.807695,-13.21399 0.38326,0.71562 1.41731,4.43142 -0.1106,4.5683 -3.41786,0.30618 -7.23697,2.28162 -6.94317,4.85796 -9.86611,2.35643 -17.172095,5.78143 -15.729045,8.87587 -3.38241,3.38241 -6.91047,6.56861 -5.24003,11.0876 -0.8957,1.34354 -10.24869,7.39971 -15.08707,8.37462 -1.57185,0.31671 2.35047,0.23654 1.94904,2.56109 -0.39974,2.31464 12.59556,-3.8886 14.42905,-8.58151 6.990104,-5.1316 3.84403,-6.07938 5.39192,-10.55598 3.729065,-0.0692 13.013745,-6.55001 16.023875,-8.96121 3.73896,2.26524 -9.56259,16.03738 -10.98931,27.18187 -4.357483,2.73806 -7.589035,6.8477 -6.228235,9.17502 -5.11412,6.33754 -11.44205,9.09528 -9.94381,9.8444 0.19868,0.0993 1.16271,0.26528 1.43751,0.69353 0.39819,0.62059 -0.0311,1.04846 0.21358,0.91271 6.37107,-3.53527 7.58923,-5.95079 10.640512,-10.29235 0.641802,0.86177 6.124653,-3.52347 7.198633,-9.28907 3.18057,-0.63879 4.80297,-6.81344 6.83575,-12.12632 -0.81652,17.88552 11.88713,38.81033 21.2259,38.16107 6.79559,-0.13484 22.77185,-21.30125 20.92214,-38.99644 0.8196,3.85655 6.16233,11.95992 8.74072,11.00605 0.29774,4.29884 4.6077,9.3907 6.89307,8.67637 4.34579,4.09459 8.16784,8.08262 11.58223,9.55284 0.97156,0.41835 0.038,-0.78831 0.95862,-1.47829 3.57706,-2.68086 1.7029,-2.00381 0.41769,-2.62002 -0.61364,-0.29422 -12.36321,-6.80594 -11.15328,-8.19826 1.94433,-2.2374 -3.5477,-5.9347 -6.99489,-7.56643 0.45235,-4.6276 -3.5822,-10.02025 -7.89878,-14.48205 -4.50679,-4.65841 -4.97546,-8.00324 -5.27931,-11.55957 3.63174,-0.86274 8.85761,6.96339 16.86634,7.32544 -0.52183,3.80895 2.83291,9.9802 6.45129,10.13222 2.38646,5.12331 7.13839,7.10706 13.58934,9.26261 0.52797,0.17641 -0.15798,-1.04457 0.30483,-1.50738 2.73877,-2.73878 2.74692,-1.84156 0.94928,-2.20233 -1.19406,-0.23964 -12.31956,-5.45425 -13.21399,-7.29048 0.34885,-4.43551 -1.51588,-8.99075 -5.29969,-11.7043 1.33721,-2.59912 -1.88644,-3.37891 -5.44616,-3.97781 -14.81459,-2.49247 -13.00342,-5.86845 -13.78355,-6.45511 -2.68451,-0.93634 -4.48717,-1.21382 -5.54193,-1.43698 -0.25313,-0.61458 0.57603,-1.9069 1.17523,-3.34738 7.33691,3.41531 21.22506,10.10165 29.20028,11.31852 7.32539,1.1177 32.1692,-12.76265 24.2632,-16.40667 3.21018,1.04259 13.35254,-1.77893 15.94791,-4.25278 3.0257,-2.88401 16.12666,-16.93742 11.08759,-20.0488 -17.66096,-10.904796 -57.70143,7.41079 -69.41137,11.84703 -4.56119,1.72796 -7.16801,2.24958 -8.03437,1.30597 -0.69379,-0.75565 2.75718,-1.20294 3.17504,-5.03885 3.84745,-0.78189 8.85123,-4.47976 11.56132,-9.9018 1.87823,-1.27049 4.24341,-4.611846 4.23372,-7.686156 -0.004,-1.13118 -0.044,-2.76926 0.53221,-3.44 1.78841,-2.08192 5.64599,-4.144896 8.63783,-5.768016 3.52896,-1.914519 2.63892,-3.524355 0.85436,-3.208569 -1.35885,-2.245585 -1.05305,-1.392431 -3.22756,-0.360721 -5.22627,2.479649 -8.85909,5.62527 -9.66368,8.771336 -2.53274,0.34469 -2.58427,7.86625 -3.20857,9.83455 -3.22481,-1.00299 -7.73679,5.047056 -11.57431,8.056606 -2.27272,-0.29776 -4.99763,2.70589 -5.94455,2.3529 -0.12829,-0.5279 -2.01373,-2.3696 -1.32725,-3.00834 3.9629,-3.68734 3.61201,-13.170006 -1.60412,-11.270676 -1.45343,-0.65148 -4.28447,-1.1128 -4.45887,-3.11719 z"
     style="fill:#000000;stroke:none;stroke-width:0.320312px;stroke-linecap:butt;stroke-linejoin:miter;stroke-opacity:1"
     inkscape:export-xdpi="96"
     inkscape:export-ydpi="96" /></g></g>
<g
   id="g211"
   transform="translate(-2.9999998)">
</g>
<g
   id="g213"
   transform="translate(-2.9999998)">
</g>
<g
   id="g215"
   transform="translate(-2.9999998)">
</g>
<g
   id="g217"
   transform="translate(-2.9999998)">
</g>
<g
   id="g219"
   transform="translate(-2.9999998)">
</g>
<g
   id="g221"
   transform="translate(-2.9999998)">
</g>
<g
   id="g223"
   transform="translate(-2.9999998)">
</g>
<g
   id="g225"
   transform="translate(-2.9999998)">
</g>
<g
   id="g227"
   transform="translate(-2.9999998)">
</g>
<g
   id="g229"
   transform="translate(-2.9999998)">
</g>
<g
   id="g231"
   transform="translate(-2.9999998)">
</g>
<g
   id="g233"
   transform="translate(-2.9999998)">
</g>
<g
   id="g235"
   transform="translate(-2.9999998)">
</g>
<g
   id="g237"
   transform="translate(-2.9999998)">
</g>
<g
   id="g239"
   transform="translate(-2.9999998)">
</g>
</svg>
