<?xml version="1.0" encoding="UTF-8" standalone="no"?>
<svg
   xmlns:dc="http://purl.org/dc/elements/1.1/"
   xmlns:cc="http://creativecommons.org/ns#"
   xmlns:rdf="http://www.w3.org/1999/02/22-rdf-syntax-ns#"
   xmlns:svg="http://www.w3.org/2000/svg"
   xmlns="http://www.w3.org/2000/svg"
   xmlns:sodipodi="http://sodipodi.sourceforge.net/DTD/sodipodi-0.dtd"
   xmlns:inkscape="http://www.inkscape.org/namespaces/inkscape"
   inkscape:version="1.0beta2 (2b71d25, 2019-12-03)"
   sodipodi:docname="hex_and_bee.svg"
   xml:space="preserve"
   enable-background="new 0 0 84.123 97.402"
   viewBox="0 0 84.123 97.402"
   height="97.402px"
   width="84.123px"
   y="0px"
   x="0px"
   id="Layer_1"
   version="1.1"><metadata
   id="metadata23"><rdf:RDF><cc:Work
       rdf:about=""><dc:format>image/svg+xml</dc:format><dc:type
         rdf:resource="http://purl.org/dc/dcmitype/StillImage" /></cc:Work></rdf:RDF></metadata><defs
   id="defs21" /><sodipodi:namedview
   inkscape:current-layer="Layer_1"
   inkscape:window-maximized="0"
   inkscape:window-y="23"
   inkscape:window-x="0"
   inkscape:cy="48.701"
   inkscape:cx="31.770515"
   inkscape:zoom="6.8992423"
   showgrid="false"
   id="namedview19"
   inkscape:window-height="949"
   inkscape:window-width="1277"
   inkscape:pageshadow="2"
   inkscape:pageopacity="0"
   guidetolerance="10"
   gridtolerance="10"
   objecttolerance="10"
   borderopacity="1"
   inkscape:document-rotation="0"
   bordercolor="#666666"
   pagecolor="#ffffff" />
<polygon
   transform="rotate(60,42.061408,48.701158)"
   id="polygon10"
   points="0,73.051 0,24.352 42.062,0 84.123,24.352 84.123,73.051 42.062,97.402 "
   fill="#23212C" />
<g
   transform="rotate(60,42.061408,48.701158)"
   id="g16">
	<path
   inkscape:connector-curvature="0"
   id="path12"
   d="m 35.94,39.264 c 2.535,1.773 3.157,5.266 1.393,7.805 -1.766,2.541 -5.25,3.164 -7.786,1.396 -2.53,-1.77 -3.152,-5.266 -1.388,-7.804 1.766,-2.541 5.25,-3.167 7.781,-1.397 z"
   fill="#FCD615" />
	<path
   inkscape:connector-curvature="0"
   id="path14"
   d="m 38.796,38.203 c 2.525,-1.34 2.692,-8.395 3.572,-11.318 1.044,-3.457 2.478,-6.921 4.236,-10.221 0.91,-1.713 3.755,-4.823 5.881,-4.937 2.359,-0.125 4.34,3.177 4.17,5.178 -0.176,2.106 -2.042,3.376 -1.17,5.653 0.37,0.97 1.676,1.08 2.068,2.1 0.671,1.721 -1.45,4.87 -2.184,6.142 -2.362,4.09 -4.303,6.417 -8.359,8.56 -1.38,0.729 -3.479,1.073 -4.102,2.682 2.213,2.344 2.998,2.283 5.963,3.535 2.263,0.955 4.887,1.82 6.796,3.406 6.479,5.369 6.548,7.086 5.817,14.188 -6.389,3.145 -8.021,3.678 -15.289,-0.562 -2.141,-1.247 -3.861,-3.412 -5.539,-5.211 -2.195,-2.357 -2.414,-3.115 -5.371,-4.388 -1.289,1.144 -0.881,3.238 -1.088,4.787 -0.602,4.556 -2.105,7.19 -5.115,10.829 -0.938,1.129 -3.146,4.217 -4.992,4.183 -1.089,-0.022 -1.644,-1.21 -2.678,-1.226 -2.434,-0.029 -2.977,2.166 -4.883,3.064 -1.813,0.85 -5.589,0.127 -6.291,-2.133 -0.631,-2.038 1.299,-5.794 2.584,-7.242 2.479,-2.797 5.223,-5.345 8.1,-7.524 2.428,-1.839 8.968,-4.438 9.347,-7.278"
   fill="#FCD615" />
</g>
</svg>
